<svg version="1.1" xmlns="http://www.w3.org/2000/svg" xmlns:xlink="http://www.w3.org/1999/xlink" x="0px" y="0px"
	 width="10.43px" height="28.35px" viewBox="0 0 10.43 28.35" enable-background="new 0 0 10.43 28.35" xml:space="preserve">
<g>
	<path fill="#fff" d="M0.134,28.35H10.43l-0.128-0.688l-0.605-0.044c-1.765-0.171-2.022-0.301-2.022-0.688V9.05l-7.626,2.111l-0.043,0.518
		l0.906,0.214c1.506,0.39,1.808,0.776,1.808,3.404v11.587c0,0.518-0.474,0.646-1.724,0.733l-0.73,0.044L0.134,28.35z M4.872,6.121
		c2.026,0,3.102-1.594,3.102-3.059c0-1.509-1.076-3.059-3.102-3.059c-1.939,0-3.058,1.55-3.058,3.059
		C1.813,4.527,2.933,6.121,4.872,6.121"/>
</g>
</svg>
