<svg version="1.1" xmlns="http://www.w3.org/2000/svg" xmlns:xlink="http://www.w3.org/1999/xlink" x="0px" y="0px"
	 width="20px" height="20px" viewBox="0 0 20 20" enable-background="new 0 0 20 20" xml:space="preserve">
<path fill="#fff" d="M20,19.321l-6.133-6.133c1.243-1.4,2.005-3.237,2.005-5.252C15.872,3.56,12.312,0,7.936,0C3.56,0,0,3.56,0,7.936
	c0,4.375,3.56,7.936,7.936,7.936c2.015,0,3.852-0.762,5.252-2.005L19.321,20L20,19.321z M7.936,14.913
	c-3.847,0-6.977-3.131-6.977-6.977c0-3.847,3.13-6.977,6.977-6.977c3.846,0,6.977,3.13,6.977,6.977
	C14.913,11.782,11.782,14.913,7.936,14.913z"/>
</svg>
