<svg version="1.1" xmlns="http://www.w3.org/2000/svg" xmlns:xlink="http://www.w3.org/1999/xlink" x="0px" y="0px"
	 width="20px" height="16.69px" viewBox="0 0 20 16.69" enable-background="new 0 0 20 16.69" xml:space="preserve">
<g>
	<path fill="#fff" d="M1.841,16.688c0.613-0.408,1.308-0.968,2.086-1.68c0.776-0.715,1.513-1.529,2.208-2.446
		c0.695-0.917,1.278-1.936,1.749-3.056c0.47-1.121,0.705-2.334,0.705-3.638c0-0.406-0.071-0.946-0.214-1.619
		C8.23,3.578,7.976,2.926,7.607,2.294c-0.368-0.632-0.88-1.172-1.534-1.62C5.418,0.226,4.581,0.001,3.559,0.001
		c-1.064,0-1.923,0.355-2.577,1.064C0.327,1.774,0,2.534,0,3.343C0,4.316,0.307,5.086,0.92,5.654c0.613,0.566,1.37,0.85,2.27,0.85
		c0.695,0,1.257-0.183,1.687-0.546c0.429-0.365,0.767-0.69,1.012-0.973C6.013,5.19,6.206,5.538,6.473,6.027
		c0.265,0.489,0.399,1.144,0.399,1.96c0,0.858-0.175,1.665-0.522,2.421c-0.348,0.755-0.797,1.48-1.35,2.175
		c-0.552,0.693-1.145,1.327-1.779,1.899c-0.634,0.572-1.257,1.104-1.871,1.593L1.841,16.688z M13.252,16.688
		c0.612-0.408,1.308-0.968,2.086-1.68c0.775-0.715,1.513-1.529,2.208-2.446c0.694-0.917,1.277-1.936,1.749-3.056
		C19.765,8.386,20,7.173,20,5.869c0-0.406-0.071-0.946-0.215-1.619c-0.144-0.672-0.398-1.323-0.767-1.955s-0.88-1.172-1.534-1.62
		c-0.654-0.449-1.493-0.673-2.515-0.673c-1.064,0-1.923,0.355-2.577,1.064c-0.655,0.709-0.981,1.468-0.981,2.278
		c0,0.973,0.307,1.743,0.921,2.311c0.612,0.566,1.369,0.85,2.27,0.85c0.695,0,1.257-0.183,1.688-0.546
		c0.429-0.365,0.767-0.69,1.012-0.973c0.123,0.205,0.315,0.552,0.583,1.042c0.265,0.489,0.398,1.144,0.398,1.96
		c0,0.858-0.175,1.665-0.521,2.421c-0.348,0.755-0.797,1.48-1.35,2.175c-0.553,0.693-1.146,1.327-1.779,1.899
		s-1.257,1.104-1.871,1.593L13.252,16.688z"/>
</g>
</svg>
